<svg width="62" height="53" viewBox="0 0 62 53" fill="none" xmlns="http://www.w3.org/2000/svg">
<path d="M60.5625 12.4977L41.2264 4.90239C40.7575 4.7183 40.2327 4.96055 40.054 5.44312C39.8754 5.92618 40.1105 6.46691 40.5793 6.651L57.6897 13.372L45.8449 18.0251L30.9481 11.0759C30.491 10.8625 29.9531 11.0716 29.7464 11.5421C29.5393 12.0132 29.7422 12.5673 30.1989 12.7808L43.454 18.9643L30.5735 24.0237L3.45734 13.372L30.5735 2.72023L37.2559 5.34555C37.7238 5.52916 38.2491 5.28739 38.4282 4.80434C38.6069 4.32176 38.3718 3.78103 37.9029 3.59694L30.8973 0.844728C30.6888 0.763017 30.4583 0.762536 30.2498 0.844728L0.584543 12.4977C0.232791 12.6361 0 12.9841 0 13.372V17.645C0 18.0328 0.232791 18.3808 0.584543 18.5193L9.84813 22.1578V25.4003C9.84813 25.917 10.2545 26.3361 10.756 26.3361C11.2579 26.3361 11.6643 25.917 11.6643 25.4003V22.8716L30.2498 30.1722C30.3543 30.213 30.4639 30.2337 30.5735 30.2337C30.6832 30.2337 30.7928 30.213 30.8973 30.1722L44.9067 24.6692V39.4771C40.5084 41.8559 35.5764 43.1306 30.5735 43.1306C23.7456 43.1306 17.0483 40.759 11.6643 36.4432V29.1431C11.6643 28.6264 11.2579 28.2073 10.756 28.2073C10.2545 28.2073 9.84813 28.6264 9.84813 29.1431V36.8965C9.84813 37.1806 9.97316 37.4493 10.1882 37.6266C15.9501 42.3827 23.19 45.0017 30.5735 45.0017C35.5531 45.0017 40.4664 43.8088 44.9067 41.5742V45.3613C43.4433 45.7732 42.3642 47.1541 42.3642 48.7907C42.3642 50.7508 43.9121 52.3461 45.8146 52.3461C47.7175 52.3461 49.2654 50.7508 49.2654 48.7907C49.2654 47.1541 48.1863 45.7732 46.7229 45.3613V40.586C48.2031 39.7184 49.6213 38.7312 50.9593 37.6266C51.1744 37.4493 51.2999 37.1806 51.2999 36.8965V22.1573L60.5625 18.5188C60.9143 18.3808 61.1471 18.0328 61.1471 17.6445V13.372C61.1471 12.9841 60.9143 12.6361 60.5625 12.4977ZM47.4492 48.7907C47.4492 49.7189 46.7159 50.4744 45.8146 50.4744C44.9137 50.4744 44.1804 49.7189 44.1804 48.7907C44.1804 47.8621 44.9137 47.1065 45.8146 47.1065C46.7159 47.1065 47.4492 47.8621 47.4492 48.7907ZM1.81614 14.7303L29.6652 25.6699V27.9396L1.81614 16.9999V14.7303ZM31.4818 27.9396V25.6699L44.9067 20.3962V22.6663L31.4818 27.9396ZM49.4832 36.4428C48.5973 37.1532 47.675 37.8097 46.7229 38.4125V23.9554L49.4832 22.8711V36.4428ZM46.7229 21.9526V19.6829L59.3309 14.7303V16.9999L46.7229 21.9526Z" fill="#141414" stroke="white" stroke-width="0.25"/>
</svg>
