<svg width="50" height="50" viewBox="0 0 50 50" fill="none" xmlns="http://www.w3.org/2000/svg">
<g clip-path="url(#clip0)">
<path d="M37.3438 39.9483C37.0851 39.6019 36.5946 39.5325 36.2505 39.7919C35.9049 40.0505 35.8346 40.5403 36.0941 40.8852L38.5943 44.2184C38.7422 44.416 38.9742 44.5312 39.2191 44.5312C39.2321 44.5312 39.2458 44.5313 39.2595 44.5305C39.5189 44.5167 39.7554 44.3748 39.8889 44.152L43.6388 37.902C43.8608 37.532 43.7411 37.0522 43.371 36.8302C43.0002 36.6073 42.5211 36.7279 42.2991 37.0979L39.1466 42.3516L37.3438 39.9483Z" fill="#141414"/>
<path d="M46.8751 4.69047H35.1564V0.78125C35.1564 0.349453 34.8069 0 34.3751 0C33.9433 0 33.5939 0.349453 33.5939 0.78125V4.69047H17.1876V0.78125C17.1876 0.349453 16.8382 0 16.4064 0C15.9745 0 15.6251 0.349453 15.6251 0.78125V4.69047H3.12475C1.39881 4.69047 -0.00025177 6.08953 -0.00025177 7.81547V46.875C-0.00025177 48.6009 1.39881 50 3.12475 50H46.8751C48.601 50 50.0001 48.6009 50.0001 46.875V7.81547C50.0001 6.08953 48.601 4.69047 46.8751 4.69047ZM3.12475 6.25297H15.6251V8.59375C15.6251 9.02555 15.9745 9.375 16.4064 9.375C16.8382 9.375 17.1876 9.02555 17.1876 8.59375V6.25297H33.5939V8.59375C33.5939 9.02555 33.9433 9.375 34.3751 9.375C34.8069 9.375 35.1564 9.02555 35.1564 8.59375V6.25297H46.8751C47.7367 6.25297 48.4376 6.95383 48.4376 7.81547V13.2812H1.56264L1.56225 13.2813V7.81547C1.56225 6.95383 2.26319 6.25297 3.12475 6.25297ZM48.4376 46.875C48.4376 47.7366 47.7367 48.4375 46.8751 48.4375H3.12475C2.26319 48.4375 1.56225 47.7366 1.56225 46.875V14.8437L1.56264 14.8438H48.4376V46.875Z" fill="#141414"/>
<path d="M14.0625 18.75H7.81247V25H14.0625V18.75ZM12.5 23.4375H9.37497V20.3125H12.5V23.4375Z" fill="#141414"/>
<path d="M28.125 18.75H21.875V25H28.125V18.75ZM26.5625 23.4375H23.4375V20.3125H26.5625V23.4375Z" fill="#141414"/>
<path d="M42.1875 18.75H35.9375V25H42.1875V18.75ZM40.625 23.4375H37.5V20.3125H40.625V23.4375Z" fill="#141414"/>
<path d="M14.0625 28.125H7.81247V34.375H14.0625V28.125ZM12.5 32.8125H9.37497V29.6875H12.5V32.8125Z" fill="#141414"/>
<path d="M28.125 28.125H21.875V34.375H28.125V28.125ZM26.5625 32.8125H23.4375V29.6875H26.5625V32.8125Z" fill="#141414"/>
<path d="M14.0625 37.5H7.81247V43.75H14.0625V37.5ZM12.5 42.1875H9.37497V39.0625H12.5V42.1875Z" fill="#141414"/>
<path d="M28.125 37.5H21.875V43.75H28.125V37.5ZM26.5625 42.1875H23.4375V39.0625H26.5625V42.1875Z" fill="#141414"/>
<path d="M42.1875 28.125H35.9375V34.375H42.1875V28.125ZM40.625 32.8125H37.5V29.6875H40.625V32.8125Z" fill="#141414"/>
</g>
<defs>
<clipPath id="clip0">
<rect width="50" height="50" fill="white"/>
</clipPath>
</defs>
</svg>
