<svg width="53" height="53" viewBox="0 0 53 53" fill="none" xmlns="http://www.w3.org/2000/svg">
<path d="M52.2236 26.5534H47.1914V15.6592H52.2236C52.6524 15.6592 53 15.3116 53 14.8829C53 14.4541 52.6524 14.1065 52.2236 14.1065H46.9904C46.7162 13.6123 46.1894 13.2767 45.5853 13.2767H41.4363C40.6458 13.2767 39.9884 13.8512 39.8559 14.6044H37.842C36.9799 14.6044 36.1161 14.5096 35.2743 14.3225L32.0029 13.5955C31.051 13.3839 30.0738 13.2767 29.0983 13.2767H22.2975V10.3191C22.2975 8.74707 21.0186 7.46813 19.4465 7.46813C18.9792 7.46813 18.5381 7.5819 18.1485 7.7821V6.17005C18.1485 4.59806 16.8696 3.31912 15.2975 3.31912C14.8302 3.31912 14.3891 3.43289 13.9993 3.63309V2.85082C13.9997 1.27883 12.7207 0 11.1488 0C9.59248 0 8.32442 1.25357 8.29916 2.80393C7.90921 2.60331 7.46772 2.48934 6.99983 2.48934C5.42784 2.48934 4.14891 3.76818 4.14891 5.34027V15.8381C3.65058 15.5297 3.06375 15.3513 2.43593 15.3513C1.09281 15.3512 0 16.444 0 17.7872V28.9894C0 31.76 1.72074 34.1347 4.14901 35.1054V38.3717C3.65483 38.6459 3.31923 39.1727 3.31923 39.7768V44.7556C3.31923 45.3597 3.65483 45.8865 4.14901 46.1607V52.2236C4.14901 52.6524 4.49662 53 4.92538 53C5.35414 53 5.70174 52.6524 5.70174 52.2236V46.3616H19.0854V52.2236C19.0854 52.6524 19.433 53 19.8617 53C20.2905 53 20.6381 52.6524 20.6381 52.2236V46.1606C21.1323 45.8864 21.4679 45.3596 21.4679 44.7555V39.7767C21.4679 39.1726 21.1323 38.6458 20.6381 38.3716V35.6988C20.6381 34.6068 20.7582 33.5128 20.995 32.4471L21.533 30.0265C21.8239 30.8403 22.6004 31.4253 23.513 31.4253H32.4747C34.7193 31.4253 36.6497 30.0545 37.473 28.1061H40.0314C40.3056 28.6003 40.8324 28.9359 41.4365 28.9359H45.5855C46.1896 28.9359 46.7164 28.6003 46.9906 28.1061H52.2236C52.6524 28.1061 53 27.7585 53 27.3298C53 26.901 52.6524 26.5534 52.2236 26.5534ZM19.4468 9.02087C20.1626 9.02087 20.7449 9.60314 20.7449 10.3191V13.2768H18.1487V10.3191C18.1487 9.60325 18.7309 9.02087 19.4468 9.02087ZM15.2977 4.87186C16.0136 4.87186 16.5959 5.45413 16.5959 6.17005V13.4666C15.7194 13.8357 15.1023 14.7035 15.1023 15.7127C15.1023 16.0242 15.1617 16.3219 15.2688 16.5959H14.2191C14.1451 16.5959 14.072 16.5998 13.9997 16.6063V6.17005C13.9997 5.45424 14.5819 4.87186 15.2977 4.87186ZM6.58494 35.5743C7.0137 35.5743 7.36131 35.2267 7.36131 34.7979C7.36131 34.3692 7.0137 34.0215 6.58494 34.0215C3.8102 34.0215 1.55273 31.7642 1.55273 28.9893V17.7872C1.55273 17.3002 1.94899 16.904 2.43593 16.904C3.38051 16.904 4.14891 17.6724 4.14891 18.617V23.1809C4.14891 23.6096 4.49651 23.9572 4.92527 23.9572C5.35404 23.9572 5.70164 23.6096 5.70164 23.1809V5.34027C5.70164 4.62446 6.28392 4.04208 6.99983 4.04208C7.71564 4.04208 8.29792 4.62435 8.29792 5.34027V18.2021C8.29792 18.6308 8.64552 18.9785 9.07428 18.9785C9.50305 18.9785 9.85065 18.6308 9.85065 18.2021V5.34027V2.85092C9.85065 2.13511 10.4329 1.55273 11.1488 1.55273C11.8647 1.55273 12.4469 2.13501 12.4469 2.85092V6.17005V17.3631C12.0359 17.7994 11.7831 18.3864 11.7831 19.0319C11.7831 19.3433 11.8425 19.6411 11.9495 19.9151H11.5637C10.2205 19.9151 9.1278 21.0079 9.1278 22.351C9.1278 23.6022 10.0762 24.6357 11.2919 24.7714C11.1809 25.0496 11.1193 25.3527 11.1193 25.6701C11.1193 27.0133 12.2122 28.106 13.5553 28.106H20.3691L19.4793 32.1101C19.2179 33.2863 19.0854 34.4937 19.0854 35.6987V38.1705H9.90417C9.47541 38.1705 9.1278 38.5181 9.1278 38.9468C9.1278 39.3756 9.47541 39.7232 9.90417 39.7232H19.8616C19.8911 39.7232 19.9151 39.7471 19.9151 39.7766V44.7554C19.9151 44.7849 19.8911 44.8088 19.8616 44.8088H4.92538C4.89587 44.8088 4.87196 44.7849 4.87196 44.7554V39.7766C4.87196 39.7471 4.89587 39.7232 4.92538 39.7232H6.58494C7.0137 39.7232 7.36131 39.3756 7.36131 38.9468C7.36131 38.5181 7.0137 38.1705 6.58494 38.1705H5.70174V35.5132C5.99086 35.5523 6.28526 35.5743 6.58494 35.5743ZM45.5853 27.3832H41.4363C41.4068 27.3832 41.3829 27.3593 41.3829 27.3298V25.6705C41.3829 25.2418 41.0352 24.8942 40.6065 24.8942C40.1777 24.8942 39.8301 25.2418 39.8301 25.6705V26.5534H37.8698C37.8883 26.3722 37.8977 26.1882 37.8977 26.0021C37.8977 25.5733 37.5501 25.2257 37.1213 25.2257C36.6926 25.2257 36.345 25.5733 36.345 26.0021C36.345 28.1363 34.6087 29.8725 32.4745 29.8725H23.5127C23.2087 29.8725 22.9614 29.6252 22.9614 29.3212C22.9614 28.6512 23.5065 28.106 24.1766 28.106H27.8277C28.2565 28.106 28.6041 27.7584 28.6041 27.3297C28.6041 26.9009 28.2565 26.5533 27.8277 26.5533H13.5552C13.0681 26.5533 12.672 26.1571 12.672 25.6701C12.672 25.1832 13.0682 24.7869 13.5552 24.7869H23.8446C24.2734 24.7869 24.621 24.4393 24.621 24.0106C24.621 23.5818 24.2734 23.2342 23.8446 23.2342H11.5636C11.0766 23.2342 10.6804 22.8379 10.6804 22.351C10.6804 21.8641 11.0767 21.4678 11.5636 21.4678H23.8446C24.2734 21.4678 24.621 21.1202 24.621 20.6914C24.621 20.2627 24.2734 19.9151 23.8446 19.9151H14.219C13.732 19.9151 13.3358 19.5188 13.3358 19.0319C13.3358 18.5449 13.7321 18.1487 14.219 18.1487H24.5085C24.9372 18.1487 25.2848 17.8011 25.2848 17.3723C25.2848 16.9435 24.9372 16.5959 24.5085 16.5959H17.5382C17.0512 16.5959 16.655 16.1997 16.655 15.7127C16.655 15.2258 17.0513 14.8295 17.5382 14.8295H29.0984C29.9607 14.8295 30.8247 14.9244 31.6662 15.1114L34.9376 15.8384C35.8897 16.05 36.867 16.1572 37.8421 16.1572H39.8302V22.3514C39.8302 22.7802 40.1778 23.1278 40.6066 23.1278C41.0354 23.1278 41.383 22.7802 41.383 22.3514V14.883C41.383 14.8535 41.4069 14.8295 41.4364 14.8295H45.5854C45.6149 14.8295 45.6388 14.8535 45.6388 14.883V27.3299C45.6387 27.3593 45.6148 27.3832 45.5853 27.3832Z" fill="#141414"/>
</svg>
