<svg width="24" height="24" viewBox="0 0 24 24" fill="none" xmlns="http://www.w3.org/2000/svg">
<path d="M17.4463 1.01477H6.44629C3.42129 1.01477 0.946289 3.48977 0.946289 6.51477V17.5148C0.946289 20.5398 3.42129 23.0148 6.44629 23.0148H17.4463C20.4713 23.0148 22.9463 20.5398 22.9463 17.5148V6.51477C22.9463 3.48977 20.4713 1.01477 17.4463 1.01477ZM21.9463 17.5148C21.9463 19.9898 19.9213 22.0148 17.4463 22.0148H6.44629C3.97129 22.0148 1.94629 19.9898 1.94629 17.5148V6.51477C1.94629 4.03977 3.97129 2.01477 6.44629 2.01477H17.4463C19.9213 2.01477 21.9463 4.03977 21.9463 6.51477V17.5148Z" fill="#141414" stroke="#141414" stroke-width="0.2"/>
<path d="M11.9395 6.51477C8.91449 6.51477 6.43949 8.98977 6.43949 12.0148C6.43949 15.0398 8.91449 17.5148 11.9395 17.5148C14.9645 17.5148 17.4395 15.0398 17.4395 12.0148C17.4395 8.98977 14.9645 6.51477 11.9395 6.51477ZM11.9395 16.5148C9.46449 16.5148 7.43949 14.4898 7.43949 12.0148C7.43949 9.53977 9.46449 7.51477 11.9395 7.51477C14.4145 7.51477 16.4395 9.53977 16.4395 12.0148C16.4395 14.4898 14.4145 16.5148 11.9395 16.5148Z" fill="#141414" stroke="#141414" stroke-width="0.2"/>
<path d="M18.4401 3.76489C17.4651 3.76489 16.6901 4.53989 16.6901 5.51489C16.6901 6.48989 17.4651 7.26489 18.4401 7.26489C19.4151 7.26489 20.1901 6.48989 20.1901 5.51489C20.1901 4.53989 19.4151 3.76489 18.4401 3.76489ZM18.4401 6.26489C18.0151 6.26489 17.6901 5.93989 17.6901 5.51489C17.6901 5.08989 18.0151 4.76489 18.4401 4.76489C18.8651 4.76489 19.1901 5.08989 19.1901 5.51489C19.1901 5.93989 18.8651 6.26489 18.4401 6.26489Z" fill="#141414" stroke="#141414" stroke-width="0.2"/>
</svg>
