<svg width="28" height="20" viewBox="0 0 28 20" fill="none" xmlns="http://www.w3.org/2000/svg">
<path d="M17.5992 9.3028C17.7303 9.36994 17.8402 9.47193 17.917 9.59756C17.9938 9.72318 18.0344 9.86757 18.0344 10.0148C18.0344 10.162 17.9938 10.3064 17.917 10.432C17.8402 10.5577 17.7303 10.6597 17.5992 10.7268L15.0992 12.0148L12.3632 13.4188C12.2416 13.481 12.1061 13.5109 11.9696 13.5059C11.8331 13.5008 11.7002 13.4609 11.5835 13.3899C11.4668 13.3189 11.3702 13.2193 11.3029 13.1004C11.2357 12.9815 11.2 12.8474 11.1992 12.7108V7.3188C11.1993 7.18188 11.2345 7.04727 11.3015 6.92785C11.3685 6.80842 11.465 6.70819 11.5818 6.63675C11.6986 6.5653 11.8318 6.52502 11.9686 6.51978C12.1054 6.51454 12.2413 6.5445 12.3632 6.6068L15.0992 8.0148L17.5992 9.3028Z" stroke="black" stroke-width="1.15" stroke-linecap="round" stroke-linejoin="round"/>
<path d="M22.6 1.01477H5.4C2.96995 1.01477 1 2.98472 1 5.41477V14.6148C1 17.0448 2.96995 19.0148 5.4 19.0148H22.6C25.0301 19.0148 27 17.0448 27 14.6148V5.41477C27 2.98472 25.0301 1.01477 22.6 1.01477Z" stroke="black" stroke-width="1.15" stroke-linecap="round" stroke-linejoin="round"/>
</svg>
