<svg width="62" height="53" fill="none" xmlns="http://www.w3.org/2000/svg"><path d="M60.563 12.498L41.225 4.902a.9.9 0 00-1.172.541.945.945 0 00.525 1.208l17.11 6.721-11.844 4.653-14.897-6.95a.897.897 0 00-1.202.467.948.948 0 00.453 1.239l13.255 6.183-12.88 5.06L3.456 13.372 30.573 2.72l6.683 2.626a.901.901 0 001.172-.542.944.944 0 00-.525-1.207L30.897.845a.883.883 0 00-.647 0L.585 12.498a.936.936 0 00-.585.874v4.273c0 .388.233.736.585.874l9.263 3.639V25.4c0 .517.406.936.908.936s.908-.419.908-.936v-2.528l18.586 7.3a.89.89 0 00.647 0l14.01-5.503v14.808c-4.399 2.379-9.33 3.654-14.333 3.654-6.828 0-13.526-2.372-18.91-6.688v-7.3c0-.517-.406-.936-.908-.936s-.908.42-.908.936v7.754c0 .284.125.552.34.73 5.762 4.756 13.002 7.375 20.386 7.375a31.92 31.92 0 0014.333-3.428v3.787c-1.464.412-2.543 1.793-2.543 3.43 0 1.96 1.548 3.555 3.45 3.555 1.904 0 3.451-1.595 3.451-3.555 0-1.637-1.079-3.018-2.542-3.43v-4.775a32.336 32.336 0 004.236-2.96.946.946 0 00.34-.73V22.158l9.264-3.638a.935.935 0 00.584-.874v-4.273a.936.936 0 00-.584-.874zM47.448 48.79c0 .928-.733 1.683-1.634 1.683-.901 0-1.635-.755-1.635-1.683 0-.929.734-1.684 1.635-1.684.9 0 1.634.755 1.634 1.684zM1.816 14.73l27.85 10.939v2.27L1.815 17v-2.27zm29.666 13.21v-2.27l13.425-5.274v2.27L31.482 27.94zm18.001 8.503a30.435 30.435 0 01-2.76 1.97V23.955l2.76-1.084v13.572zm-2.76-14.49v-2.27L59.33 14.73V17l-12.608 4.953z" fill="#141414" stroke="#fff" stroke-width=".25"/></svg>