<svg width="53" height="53" fill="none" xmlns="http://www.w3.org/2000/svg"><path d="M52.224 26.553H47.19V15.66h5.033a.776.776 0 100-1.553H46.99a1.607 1.607 0 00-1.405-.83h-4.149c-.79 0-1.448.575-1.58 1.328h-2.014c-.862 0-1.726-.094-2.568-.281l-3.271-.728a13.407 13.407 0 00-2.905-.318h-6.8V10.32a2.854 2.854 0 00-2.851-2.85c-.468 0-.909.113-1.299.313V6.17a2.854 2.854 0 00-2.85-2.85c-.468 0-.909.113-1.299.313v-.782A2.854 2.854 0 0011.15 0 2.854 2.854 0 008.3 2.804 2.84 2.84 0 007 2.489 2.854 2.854 0 004.15 5.34v10.498a3.245 3.245 0 00-1.713-.487A2.439 2.439 0 000 17.787V28.99a6.592 6.592 0 004.149 6.116v3.267c-.494.274-.83.8-.83 1.405v4.979c0 .604.336 1.13.83 1.405v6.063a.776.776 0 101.553 0v-5.862h13.383v5.862a.776.776 0 101.553 0V46.16c.494-.275.83-.801.83-1.406v-4.978c0-.604-.336-1.131-.83-1.405v-2.673c0-1.092.12-2.186.357-3.252l.538-2.42a2.106 2.106 0 001.98 1.398h8.962a5.432 5.432 0 004.998-3.319h2.558c.275.494.801.83 1.406.83h4.149c.604 0 1.13-.336 1.405-.83h5.233a.776.776 0 100-1.553zM19.447 9.021a1.3 1.3 0 011.298 1.298v2.958h-2.596v-2.958a1.3 1.3 0 011.298-1.298zm-4.15-4.15a1.3 1.3 0 011.299 1.299v7.297a2.44 2.44 0 00-1.327 3.129h-1.05c-.074 0-.147.004-.22.01V6.17a1.3 1.3 0 011.299-1.298zM6.586 35.575a.776.776 0 000-1.552 5.038 5.038 0 01-5.032-5.033V17.787c0-.487.396-.883.883-.883.945 0 1.713.768 1.713 1.713v4.564a.776.776 0 001.553 0V5.34A1.3 1.3 0 017 4.041 1.3 1.3 0 018.298 5.34v12.862a.776.776 0 001.553 0V2.85a1.3 1.3 0 011.298-1.297 1.3 1.3 0 011.298 1.298v14.512a2.427 2.427 0 00-.497 2.552h-.386a2.439 2.439 0 00-2.436 2.436 2.44 2.44 0 002.164 2.42 2.439 2.439 0 002.263 3.335h6.814l-.89 4.004a16.57 16.57 0 00-.394 3.589v2.471h-9.18a.776.776 0 000 1.553h9.957c.03 0 .053.024.053.054v4.978c0 .03-.024.054-.053.054H4.925a.053.053 0 01-.053-.054v-4.978c0-.03.024-.054.053-.054h1.66a.776.776 0 000-1.553h-.883v-2.657c.289.04.583.061.883.061zm39-8.19h-4.149a.053.053 0 01-.053-.054v-1.66a.776.776 0 00-1.553 0v.883h-1.96c.018-.18.028-.365.028-.55a.776.776 0 10-1.553 0 3.875 3.875 0 01-3.87 3.87h-8.962a.552.552 0 01-.552-.552c0-.67.546-1.215 1.216-1.215h3.65a.776.776 0 100-1.553H13.556a.884.884 0 010-1.766h10.29a.776.776 0 100-1.553H11.564a.884.884 0 010-1.766h12.28a.776.776 0 100-1.553H14.22a.884.884 0 010-1.766h10.29a.776.776 0 000-1.553h-6.97a.884.884 0 010-1.767H29.1c.862 0 1.726.095 2.567.282l3.272.727c.952.212 1.929.32 2.904.32h1.988v6.193a.776.776 0 101.553 0v-7.468c0-.03.024-.053.053-.053h4.15c.029 0 .053.024.053.053V27.33c0 .03-.024.053-.054.053z" fill="#141414"/></svg>