<svg width="50" height="50" fill="none" xmlns="http://www.w3.org/2000/svg"><g clip-path="url(#clip0)" fill="#141414"><path d="M37.344 39.948a.78.78 0 10-1.25.937l2.5 3.333a.78.78 0 00.625.313h.04a.783.783 0 00.63-.379l3.75-6.25a.781.781 0 10-1.34-.804l-3.152 5.254-1.803-2.404z"/><path d="M46.875 4.69H35.156V.781a.78.78 0 10-1.562 0v3.91H17.188V.78a.78.78 0 10-1.563 0v3.91h-12.5A3.125 3.125 0 000 7.814v39.06A3.125 3.125 0 003.125 50h43.75C48.601 50 50 48.6 50 46.875V7.815a3.125 3.125 0 00-3.125-3.125zM3.125 6.253h12.5v2.34a.78.78 0 101.563 0v-2.34h16.406v2.34a.78.78 0 101.562 0v-2.34h11.72c.86 0 1.562.7 1.562 1.562v5.466H1.563V7.815c0-.861.7-1.562 1.562-1.562zm45.313 40.622c0 .862-.701 1.563-1.563 1.563H3.125a1.565 1.565 0 01-1.563-1.563V14.844h46.876v32.031z"/><path d="M14.063 18.75h-6.25V25h6.25v-6.25zM12.5 23.438H9.375v-3.125H12.5v3.125zm15.625-4.688h-6.25V25h6.25v-6.25zm-1.563 4.688h-3.125v-3.125h3.125v3.125zm15.626-4.688h-6.25V25h6.25v-6.25zm-1.563 4.688H37.5v-3.125h3.125v3.125zm-26.562 4.687h-6.25v6.25h6.25v-6.25zM12.5 32.813H9.375v-3.126H12.5v3.125zm15.625-4.688h-6.25v6.25h6.25v-6.25zm-1.563 4.688h-3.125v-3.126h3.125v3.125zM14.063 37.5h-6.25v6.25h6.25V37.5zM12.5 42.188H9.375v-3.126H12.5v3.126zM28.125 37.5h-6.25v6.25h6.25V37.5zm-1.563 4.688h-3.125v-3.126h3.125v3.126zm15.626-14.063h-6.25v6.25h6.25v-6.25zm-1.563 4.688H37.5v-3.126h3.125v3.125z"/></g><defs><clipPath id="clip0"><path fill="#fff" d="M0 0h50v50H0z"/></clipPath></defs></svg>