<svg width="24" height="24" fill="none" xmlns="http://www.w3.org/2000/svg"><path d="M17.446 1.015h-11c-3.025 0-5.5 2.475-5.5 5.5v11c0 3.025 2.475 5.5 5.5 5.5h11c3.025 0 5.5-2.475 5.5-5.5v-11c0-3.025-2.475-5.5-5.5-5.5zm4.5 16.5c0 2.475-2.025 4.5-4.5 4.5h-11a4.513 4.513 0 01-4.5-4.5v-11c0-2.475 2.025-4.5 4.5-4.5h11c2.475 0 4.5 2.025 4.5 4.5v11z" fill="#141414" stroke="#141414" stroke-width=".2"/><path d="M11.94 6.515c-3.026 0-5.5 2.475-5.5 5.5s2.474 5.5 5.5 5.5c3.024 0 5.5-2.475 5.5-5.5s-2.476-5.5-5.5-5.5zm0 10a4.513 4.513 0 01-4.5-4.5c0-2.475 2.024-4.5 4.5-4.5 2.475 0 4.5 2.025 4.5 4.5s-2.026 4.5-4.5 4.5zm6.5-12.75a1.74 1.74 0 00-1.75 1.75c0 .975.775 1.75 1.75 1.75a1.74 1.74 0 001.75-1.75 1.74 1.74 0 00-1.75-1.75zm0 2.5a.737.737 0 01-.75-.75c0-.425.325-.75.75-.75s.75.325.75.75-.325.75-.75.75z" fill="#141414" stroke="#141414" stroke-width=".2"/></svg>